/* XPM */
static char *projector_xpm[] = {
"32 33 25 1",
"A	c #FEFEFE",
"B	c #F4F4F4",
"C	c #EDEDED",
"D	c #F1F1F1",
"E	c #F7F7F7",
"F	c #FAFAFA",
"G	c #000000",
"H	c #FFFFFF",
"I	c #ECECEC",
"J	c #FBFBFB",
"K	c #101010",
"L	c #7A7A7A",
"M	c #5D5D5D",
"N	c #898989",
"O	c #B1B1B1",
"P	c #575757",
"Q	c #393939",
"R	c #DFDFDF",
"S	c #272727",
"T	c #AAAAAA",
"U	c #707070",
"V	c #505050",
"W	c #999999",
"X	c #1A1A1A",
"Y	c #BBBBBB",
"ABCADCADBACEACFAGGGGHHCAIIAIIACJ",
"BEEBEEBEEBEEBEGGGGGGGGEBEEBEEBEB",
"CEACFHBHECABCGGGGGGGGGGCHHCAHCAD",
"ABCHGGGGGKCEGGGJCHACGGGHIIAIIACJ",
"CEAGGGGGGGLBGGGCAIIAIGGGHHCHHCHD",
"IEGGGJIHGGGBGGDIHIIHIMGGHHIHHIHD",
"ABGGJCADBGGMGGFACHACHHGGIIAIIACJ",
"CAGGFACAEGGGGGBCAIIAIGGGHHCHHCAD",
"DFGGFADJEGGGGGGDACCACGGGAADAADAD",
"ABGGGCADGGGFNGGGCHACGGGAIIAIIACJ",
"CEOGGGGGGGGBCGGGGGGGGGPCHHCAHCAD",
"DEFQGGGGGGFBDFGGGGGGGRFDFJDFJDFB",
"HBIHBGGGIHIEHIFHGGGSHHIHIIHIIHIA",
"CEACFGGGGGGGGGGGGGGGGGACHHCAHGHD",
"HBIHGGGGGGGGGGGGGGGGGGGHIIHTGGBA",
"HBIHGGGGGGGGGGGGGGGGGGGHIIGGGGBA",
"CEACGGGGGGGGGGGGGGGGGGGCGGGGGGHD",
"HBIHGGGGGGGGGGGGGGGGGGGHGGGGGGEJ",
"HBIHGGGGGGGGGGGGGGGGGGGHGGGGGGBA",
"CEACGGGGGGGGGGGGGGGGGGGCGGGGGGHD",
"ABCAGGGGGGGGGGGGGGGGGGGAGGGGGGEJ",
"IEHIGGGGGGGGGGGGGGGGGGGIGGGGGGHD",
"CEACGGGGGGGGGGGGGGGGGGGCGGGGGGHD",
"ABCAGGGGGGGGGGGGGGGGGGGAGGGGGGEJ",
"IEHIGGGGGGGGGGGGGGGGGGGIHGGGGGHD",
"IEAIGGGGGGGGGGGGGGGGGGGIHHRGGGHD",
"ABCAGGGGGGGGGGGGGGGGGGUAIIAIGGEJ",
"IEHIFVGGGGGGGGGGGGGGGWHIHHIHHIHD",
"IEHIFHIAEGGGGGGGXIIHIIHIHHIHHIHD",
"ABCADCADBGGGACGGGHACHHCAIIAIIACJ",
"CEACFACAGGGBCABGGGIAIIACHHCAHCAD",
"FEDFBDFGGGBEFDEYGGJDFFDFDDFDDFDF",
"ABCADCAGGWCEACFAGGGCHHCAIIAIIACJ"
};
